<?xml version="1.0" encoding="UTF-8" standalone="no"?>
<!-- Created with Inkscape (http://www.inkscape.org/) -->

<svg
   width="100mm"
   height="100mm"
   viewBox="0 0 100 100"
   version="1.1"
   id="svg1"
   xml:space="preserve"
   inkscape:version="1.3 (0e150ed6c4, 2023-07-21)"
   sodipodi:docname="logo.svg"
   inkscape:export-filename="..\logo.png"
   inkscape:export-xdpi="260.09601"
   inkscape:export-ydpi="260.09601"
   xmlns:inkscape="http://www.inkscape.org/namespaces/inkscape"
   xmlns:sodipodi="http://sodipodi.sourceforge.net/DTD/sodipodi-0.dtd"
   xmlns:xlink="http://www.w3.org/1999/xlink"
   xmlns="http://www.w3.org/2000/svg"
   xmlns:svg="http://www.w3.org/2000/svg"><sodipodi:namedview
     id="namedview1"
     pagecolor="#ffffff"
     bordercolor="#000000"
     borderopacity="0.25"
     inkscape:showpageshadow="2"
     inkscape:pageopacity="0.0"
     inkscape:pagecheckerboard="0"
     inkscape:deskcolor="#d1d1d1"
     inkscape:document-units="mm"
     showguides="true"
     inkscape:zoom="2"
     inkscape:cx="155.5"
     inkscape:cy="199.75"
     inkscape:window-width="1920"
     inkscape:window-height="1017"
     inkscape:window-x="1016"
     inkscape:window-y="-8"
     inkscape:window-maximized="1"
     inkscape:current-layer="layer1" /><defs
     id="defs1"><linearGradient
       id="linearGradient2795"><stop
         style="stop-color:#b8b8b8;stop-opacity:0.49803922;"
         offset="0"
         id="stop2797" /><stop
         style="stop-color:#7f7f7f;stop-opacity:0;"
         offset="1"
         id="stop2799" /></linearGradient><linearGradient
       id="linearGradient2787"><stop
         style="stop-color:#7f7f7f;stop-opacity:0.5;"
         offset="0"
         id="stop2789" /><stop
         style="stop-color:#7f7f7f;stop-opacity:0;"
         offset="1"
         id="stop2791" /></linearGradient><linearGradient
       id="linearGradient3676"><stop
         style="stop-color:#b2b2b2;stop-opacity:0.5;"
         offset="0"
         id="stop3678" /><stop
         style="stop-color:#b3b3b3;stop-opacity:0;"
         offset="1"
         id="stop3680" /></linearGradient><linearGradient
       id="linearGradient3236"><stop
         style="stop-color:#f4f4f4;stop-opacity:1"
         offset="0"
         id="stop3244" /><stop
         style="stop-color:white;stop-opacity:1"
         offset="1"
         id="stop3240" /></linearGradient><linearGradient
       id="linearGradient4671"><stop
         style="stop-color:#ffd43b;stop-opacity:1;"
         offset="0"
         id="stop4673" /><stop
         style="stop-color:#ffe873;stop-opacity:1"
         offset="1"
         id="stop4675" /></linearGradient><linearGradient
       id="linearGradient4689"><stop
         style="stop-color:#5a9fd4;stop-opacity:1;"
         offset="0"
         id="stop4691" /><stop
         style="stop-color:#306998;stop-opacity:1;"
         offset="1"
         id="stop4693" /></linearGradient><linearGradient
       x1="224.23996"
       y1="144.75717"
       x2="-65.308502"
       y2="144.75717"
       id="linearGradient2987"
       xlink:href="#linearGradient4671"
       gradientUnits="userSpaceOnUse"
       gradientTransform="translate(100.2702,99.61116)" /><linearGradient
       x1="172.94208"
       y1="77.475983"
       x2="26.670298"
       y2="76.313133"
       id="linearGradient2990"
       xlink:href="#linearGradient4689"
       gradientUnits="userSpaceOnUse"
       gradientTransform="translate(100.2702,99.61116)" /><linearGradient
       inkscape:collect="always"
       xlink:href="#linearGradient4671"
       id="linearGradient2255"
       gradientUnits="userSpaceOnUse"
       gradientTransform="matrix(0.562541,0,0,0.567972,-11.5974,-7.60954)"
       x1="224.23996"
       y1="144.75717"
       x2="-65.308502"
       y2="144.75717" /><linearGradient
       inkscape:collect="always"
       xlink:href="#linearGradient4689"
       id="linearGradient2258"
       gradientUnits="userSpaceOnUse"
       gradientTransform="matrix(0.562541,0,0,0.567972,-11.5974,-7.60954)"
       x1="172.94208"
       y1="76.176224"
       x2="26.670298"
       y2="76.313133" /><radialGradient
       inkscape:collect="always"
       xlink:href="#linearGradient2795"
       id="radialGradient2801"
       cx="61.518883"
       cy="132.28575"
       fx="61.518883"
       fy="132.28575"
       r="29.036913"
       gradientTransform="matrix(1,0,0,0.177966,0,108.7434)"
       gradientUnits="userSpaceOnUse" /></defs><g
     inkscape:label="Camada 1"
     inkscape:groupmode="layer"
     id="layer1"><g
       id="g2"
       transform="matrix(1.0951445,0,0,1.0899195,-151.86999,-19.725459)"><path
         id="path1948-7"
         style="fill:#00552f;fill-opacity:1"
         d="m 183.75859,18.099007 c -4.58364,0.0213 -8.96093,0.412221 -12.8125,1.09375 -11.34617,2.004497 -13.40625,2.200126 -13.40625,9.9375 v 7.625 h -4.0625 c -7.79242,0 -10.77984,4.683738 -12.91406,13.59375 -2.46181,10.21294 -2.57101,16.586061 0,27.250001 1.9059,7.937834 2.45756,13.59375 10.25,13.59375 h 6.71679 v 7.623052 c 0,7.26631 6.13001,8.72478 13.40625,9.9375 4.60598,0.7667 9.38511,1.11505 13.96875,1.09375 4.58364,-0.0213 8.96095,-0.41224 12.8125,-1.09375 11.34617,-2.0045 13.40624,-2.20013 13.40625,-9.9375 4e-4,-4.54167 6.7e-4,-3.083337 -0.002,-7.625005 h 0.002 4.0625 c 7.79244,0 10.77983,-4.683738 12.91407,-13.59375 2.46179,-10.21294 2.57099,-16.584108 0,-27.248048 -1.90592,-7.937834 -2.45758,-13.59375 -10.25,-13.59375 h -6.7168 v -7.625 c 0,-7.266316 -6.13001,-8.724781 -13.40625,-9.9375 -4.60598,-0.766718 -9.38511,-1.11505 -13.96875,-1.09375 z"
         sodipodi:nodetypes="scscsccscscscsccsccscscs" /></g><path
       id="path7"
       style="fill:#ffffff;stroke-width:2.24097"
       d="m 52.058803,18.701213 c -17.35743,0 -31.448857,14.024214 -31.448857,31.298788 0,17.27458 14.091427,31.29879 31.448857,31.29879 11.70419,0 21.91618,-6.38287 27.33124,-15.83288 l -13.77477,-7.54208 a 15.724313,15.648756 0 0 1 -13.55438,7.72346 15.724313,15.648756 0 0 1 -15.72651,-15.649397 15.724313,15.648756 0 0 1 15.72651,-15.647289 15.724313,15.648756 0 0 1 13.40179,7.506225 l 13.6688,-7.774081 C 73.653103,24.879711 63.577093,18.701213 52.058803,18.701213 Z" /></g></svg>
