<?xml version="1.0" encoding="UTF-8" standalone="no"?>
<!-- Created with Inkscape (http://www.inkscape.org/) -->

<svg
   width="210mm"
   height="297mm"
   viewBox="0 0 210 297"
   version="1.1"
   id="svg1"
   inkscape:version="1.3 (0e150ed6c4, 2023-07-21)"
   sodipodi:docname="logo.svg"
   inkscape:export-filename="logo.png"
   inkscape:export-xdpi="3291.02"
   inkscape:export-ydpi="3291.02"
   xmlns:inkscape="http://www.inkscape.org/namespaces/inkscape"
   xmlns:sodipodi="http://sodipodi.sourceforge.net/DTD/sodipodi-0.dtd"
   xmlns="http://www.w3.org/2000/svg"
   xmlns:svg="http://www.w3.org/2000/svg">
  <sodipodi:namedview
     id="namedview1"
     pagecolor="#505050"
     bordercolor="#eeeeee"
     borderopacity="1"
     inkscape:showpageshadow="0"
     inkscape:pageopacity="0"
     inkscape:pagecheckerboard="0"
     inkscape:deskcolor="#505050"
     inkscape:document-units="mm"
     inkscape:zoom="16"
     inkscape:cx="276.75"
     inkscape:cy="248.34375"
     inkscape:window-width="1920"
     inkscape:window-height="1017"
     inkscape:window-x="1016"
     inkscape:window-y="-8"
     inkscape:window-maximized="1"
     inkscape:current-layer="layer1" />
  <defs
     id="defs1" />
  <g
     inkscape:label="Camada 1"
     inkscape:groupmode="layer"
     id="layer1">
    <rect
       style="fill:#5f7a7b;fill-opacity:1;stroke-width:0.231488"
       id="rect6"
       width="7.7179689"
       height="7.7179689"
       x="72.065887"
       y="61.730595" />
    <g
       id="g5"
       transform="translate(-0.14283776,0.27883387)">
      <circle
         style="fill:#0b1316;fill-opacity:1;stroke-width:0.264583"
         id="path3"
         cx="78.267059"
         cy="65.310745"
         r="0.86816406" />
      <path
         style="fill:#0b1316;fill-opacity:1;stroke-width:0.264583"
         d="M 76.435644,67.33439 78.6784,66.075552 78.6877,64.552131 76.455587,63.296604 Z"
         id="path5"
         sodipodi:nodetypes="ccccc" />
      <circle
         style="fill:#0b1316;fill-opacity:1;stroke-width:0.289388"
         id="path2"
         cx="75.3153"
         cy="65.310745"
         r="2.315104" />
    </g>
    <g
       id="g6"
       transform="translate(0.05760042,0.30153611)">
      <path
         style="font-weight:bold;font-size:4.9389px;font-family:Sans;-inkscape-font-specification:'Sans Bold';letter-spacing:0px;fill:#004242;fill-opacity:1;stroke-width:0.264583"
         d="m 75.291261,64.097769 q -0.429684,0 -0.656874,0.321029 -0.227189,0.321028 -0.227189,0.879124 0,0.563034 0.207434,0.874185 0.212372,0.306212 0.676629,0.306212 0.212373,0 0.429684,-0.04939 0.217312,-0.04939 0.469196,-0.138289 v 0.62724 q -0.232129,0.09384 -0.459318,0.138289 -0.227189,0.04445 -0.508707,0.04445 -0.548218,0 -0.89888,-0.22225 -0.350661,-0.22719 -0.518584,-0.632179 -0.167923,-0.409929 -0.167923,-0.953208 0,-0.533401 0.192617,-0.94333 0.192618,-0.409929 0.558096,-0.642057 0.370418,-0.232128 0.903819,-0.232128 0.261762,0 0.523523,0.06914 0.266701,0.06421 0.508707,0.177801 l -0.242006,0.607484 q -0.197556,-0.09384 -0.400051,-0.162983 -0.197556,-0.06915 -0.390173,-0.06915 z"
         id="text2"
         aria-label="C" />
      <path
         style="font-weight:bold;font-size:4.9389px;font-family:Sans;-inkscape-font-specification:'Sans Bold';letter-spacing:0px;fill:#5d8aa8;fill-opacity:1;stroke-width:0.264583"
         d="m 74.399072,65.750579 c -0.155711,-0.426866 -0.176312,-0.771585 -0.0618,-1.03416 0.11029,-0.264537 0.326279,-0.45548 0.647977,-0.572826 0.194871,-0.07108 0.390494,-0.09689 0.586865,-0.07739 0.196373,0.0195 0.380009,0.10497 0.550914,0.256418 0.169777,0.14836 0.313339,0.383387 0.430685,0.705083 l 0.110012,0.301591 1.178522,-0.429895 0.255567,0.700617 -2.673975,0.975398 c -0.3307,0.120631 -0.715173,0.02389 -0.815473,-0.25108 z m 0.588879,-0.172756 0.116783,0.32015 0.983647,-0.358809 -0.08463,-0.231993 c -0.07221,-0.197967 -0.167856,-0.340072 -0.286938,-0.426313 -0.123299,-0.0882 -0.273109,-0.10015 -0.449423,-0.03583 -0.321696,0.117346 -0.414844,0.361613 -0.279445,0.732801 z"
         id="text1"
         aria-label="P"
         sodipodi:nodetypes="scsscscccssssccscss" />
    </g>
  </g>
</svg>
